<svg xmlns="http://www.w3.org/2000/svg" width="200" height="197" viewBox="0 0 200 197">
  <g id="moon" transform="translate(-194 -240)">
    <g id="Ellipse_1" data-name="Ellipse 1" transform="translate(194 240)" fill="none" stroke="#9e9494" stroke-width="5" opacity="0.86">
      <ellipse cx="100" cy="98.5" rx="100" ry="98.5" stroke="none"/>
      <ellipse cx="100" cy="98.5" rx="97.5" ry="96" fill="none"/>
    </g>
    <g id="moon-2" data-name="moon" transform="translate(241 285.454)">
      <g id="Group_1" data-name="Group 1" transform="translate(0 0.546)">
        <path id="Path_1" data-name="Path 1" d="M103.654,60.754a3.731,3.731,0,0,0-3.12.678,39.8,39.8,0,0,1-12.075,7.055,37.812,37.812,0,0,1-13.7,2.442A39.837,39.837,0,0,1,34.868,31.041a41.813,41.813,0,0,1,2.171-13.16A36.43,36.43,0,0,1,43.551,6.213a3.463,3.463,0,0,0-.543-4.884A3.731,3.731,0,0,0,39.888.65,54.749,54.749,0,0,0,11.125,19.916,53.707,53.707,0,1,0,105.961,65.1,3.218,3.218,0,0,0,103.654,60.754ZM82.9,89.109A46.7,46.7,0,0,1,7.326,52.478a45.878,45.878,0,0,1,9.633-28.356A46.644,46.644,0,0,1,32.562,11.1a46.866,46.866,0,0,0-1.9,4.613,45.146,45.146,0,0,0-2.578,15.467A46.785,46.785,0,0,0,74.892,77.984a45.42,45.42,0,0,0,16.145-2.849c1.764-.678,3.527-1.357,5.156-2.171A49.362,49.362,0,0,1,82.9,89.109Z" transform="translate(0 -0.546)"/>
      </g>
    </g>
  </g>
</svg>
